<svg xmlns="http://www.w3.org/2000/svg" viewBox="0 0 30.14 43.91"><defs><style>.cls-1{fill:#8e0aeb;}.cls-2{fill:#e4980e;}</style></defs><g id="Layer_2" data-name="Layer 2"><g id="Layer_1-2" data-name="Layer 1"><polygon class="cls-1" points="0 6.41 21.75 22.18 0 37.7 0 39.53 24.41 22.18 0 4.51 0 6.41"/><polygon class="cls-2" points="0 43.91 30.14 22.18 0 0 0 0.37 29.61 22.18 0 43.52 0 43.91"/><polygon class="cls-2" points="16.9 12.68 16.86 14.56 26.87 22.22 29.71 22.26 16.9 12.68"/><polygon class="cls-2" points="16.79 31.61 16.79 29.73 26.98 22.18 29.82 22.18 16.79 31.61"/><path class="cls-2" d="M0,10.54v5.21l9.28,6.43L0,28.62v5.2L16.79,22.18Z"/><polygon class="cls-2" points="2.84 2.39 2.81 3.78 10.2 9.44 12.3 9.46 2.84 2.39"/><polygon class="cls-2" points="2.84 41.88 2.81 40.49 10.2 34.83 12.3 34.81 2.84 41.88"/></g></g></svg>